<?xml version="1.0" encoding="utf-8"?>
<!-- Generator: Adobe Illustrator 18.1.1, SVG Export Plug-In . SVG Version: 6.00 Build 0)  -->
<svg version="1.1" id="Calque_1" xmlns="http://www.w3.org/2000/svg" xmlns:xlink="http://www.w3.org/1999/xlink" x="0px" y="0px"
	 viewBox="0 0 612 392" enable-background="new 0 0 612 792" xml:space="preserve">
<g>
	<path fill="blue" d="M306.2,478c-101.6,0-203.3,0-304.9,0c-0.9,0-1.1-0.2-1.1-1.1c0-53.7,0-107.4,0-161.1c0-0.9,0.2-1.1,1.1-1.1
		c203.3,0,406.5,0,609.8,0c0.9,0,1.1,0.2,1.1,1.1c0,53.7,0,107.4,0,161.1c0,0.9-0.2,1.1-1.1,1.1C509.5,478,407.9,478,306.2,478z
		 M64.3,378.7c0.8,0.1,0.9-0.3,0.9-1c0-0.8-0.4-0.8-0.9-0.7c0-2.1,0-4.1,0-6.2c0-1.2,0.5-2.7-0.2-3.5c-0.8-0.8-2.3-0.2-3.5-0.3
		c0-0.8,0-1.7,0-2.5c0-0.3,0.1-0.7-0.3-0.7c-1-0.1-2.1-0.3-2.9,0.1c-0.5,0.3,0,1.1,0,1.7c0,0.3,0,0.7,0,1c-0.1,3.7,0.2,7.4-0.2,11.1
		c-0.1,0.6,0.1,0.9,0.8,0.9c0.9,0,1.7,0,2.6,0c0,0.9,0,1.7-0.2,2.6c-0.2,0.9,0.1,1.4,1.1,1.4c2.1-0.1,4.3,0,6.4,0
		c0.8,0,1.1-0.3,1.1-1.1c0-1.3-1-1.8-2.3-1.2c-2,0.8-2.4,0.6-2.4-1.5C64.3,378.8,64.3,378.8,64.3,378.7z M71,379
		c1.2,4,5.1,5.4,8.7,3c0,0.7,0,1.3,0.1,2c0.3,5.1,1.7,9.7,5.9,12.9c0,0.4,0,0.7,0.5,0.7l0,0c-0.1,0.4,0.1,0.7,0.4,1
		c1.7,1.8,3.6,3.4,5.9,4.4c4.7,2,9.7,2.6,14.6,2.9c4.8,0.3,9.6,0.2,14.5-0.2c4.9-0.4,9.8-0.5,14.7,0.3c2.6,0.4,5.3,0.5,7.8,1.6
		c0.4,0.2,0.8,0.2,1.2,0.2l0,0c0.1,0.1,0.1,0.2,0.2,0.3c1.5,3.2,1.1,6.5,0.2,9.8c-0.5,1.7-1.6,3-3.1,3.8c-2.3,1.3-4.8,2-7.5,2
		c-11.2,0-22.4,0-33.6,0c-2.9,0-5.7-0.7-8.3-2c-0.3-1.6-0.9-3.2-0.8-5c0-1-0.5-1.6-1.6-1.5c-0.6,0.1-1.2,0-1.9,0.1
		c-0.4-0.7-0.2-1.4-0.2-2.1c-0.1-1-0.4-1.6-1.6-1.5c-1.7,0.1-3.5,0.1-5.2,0c-1.2-0.1-1.6,0.4-1.6,1.6c0.2,6.1,2.2,11.4,6.9,15.4
		c0,0.3,0.1,0.6,0.3,0.9c2.4,3.2,5.9,4.9,9.6,6.2c2.7,0.9,5.5,1.1,8.3,1c11.4-0.1,22.7,0.3,34.1-0.2c3.3-0.1,6.5-0.5,9.6-1.8
		c2.8-1.1,4.9-2.9,6.4-5.4c1.4-2.4,2.1-5,2.6-7.8c0.7-4.6,0.5-9.2-1.1-13.6c-1-2.7-2.8-4.9-5.2-6.7c-1.9-2.2-3.9-4.2-6.6-5.4
		c-4.3-1.9-8.9-2.4-13.4-3c-4.1-0.5-8.3-0.3-12.5-0.2c-6.2,0.2-12.4,0.5-18.6-0.2c-2.8-0.3-5.6-0.8-8.1-2.3
		c-0.5-1.9-0.7-3.9-0.5-5.9c0.3-3.7,1.4-5.6,4.1-6.7c1.8-0.7,3.7-1,5.7-1c11.6,0,23.1,0,34.7,0c0.5,0,1,0.1,1.5,0.1
		c2.4,0.1,4.6,0.8,6.9,1.4c0.7,1,0.8,2.3,1,3.5c0.4,2.6,0.3,2.6,3,2.7c0.3,0.7,0.2,1.4,0.3,2.1c0.1,1.5,0.5,1.9,2,1.9
		c1.8,0,3.5,0,5.3,0c1.1,0,1.7-0.4,1.6-1.6c0-1-0.1-2-0.2-3.1c-0.5-4.3-1.7-8.3-5.1-11.2c-0.5-0.4-0.5-1.3-1.4-1.2
		c-1.4-1.7-3-3.3-4.9-4.5c-3.6-2.2-7.7-3-11.9-3c-11.8-0.1-23.6,0-35.5,0c-2,0-3.9,0.2-5.8,0.5c-2.6,0.5-5.1,1.3-7.2,2.9
		c-2.6,2.1-4.3,4.8-5.4,8c-0.7-0.2-0.5-0.9-0.6-1.3c-0.6-1.4-2-2.5-3.4-2.5c-0.8-2.4-1.9-3.3-4.1-3.3c-2.3,0-4,1-4.5,3.1
		C67.1,373.8,67.3,377.7,71,379z M170.5,432.7c0,0.7,0,1.4,0,2.1c0,1.7,0.3,1.9,1.9,1.9c1.5,0,3,0,4.5,0c2.2,0,2.3-0.1,2.3-2.3
		c0-9.1,0-18.2,0-27.3c0-0.9,0-1.7,1.3-1.7c16.1,0,32.2,0,48.2,0c0,8.3,0,16.5,0,24.8c0,2.5-0.3,2.3,2.3,2.3c0.3,0,0.6,0.1,0.9,0.1
		c0,0.8,0.1,1.7,0,2.5c-0.1,1.2,0.5,1.6,1.6,1.6c1.6,0,3.2,0,4.8,0c2,0,2.3-0.3,2.3-2.3c0-21.7,0-43.5,0-65.2c0-0.3,0-0.6,0-0.9
		c-0.1-0.9-0.4-1.5-1.5-1.4c-0.7,0.1-1.5,0-2.2,0c0-0.6-0.1-1.2,0-1.7c0.1-1.1-0.3-1.6-1.5-1.5c-1.6,0.1-3.3,0-5,0
		c-1.7,0-1.7,0-1.7,1.7c0,8.5,0,17,0,25.6c0,1.2-0.3,1.5-1.5,1.5c-15.6,0-31.2,0-46.8,0c-0.5,0-0.9,0-1.4-0.1c0-2.2,0-4.5,0-6.7
		c0-5.8,0-11.6,0-17.4c0-1.1-0.3-1.5-1.4-1.4c-0.7,0.1-1.5,0-2.2,0c0-0.7-0.1-1.3,0-2c0-0.9-0.3-1.3-1.2-1.2c-1.7,0.1-3.5,0-5.2,0
		c-1.8,0-1.8,0-1.8,1.9c0,21.5,0,43.1,0,64.6c0,2.4-0.3,2.4,2.3,2.3C169.9,432.6,170.2,432.7,170.5,432.7z M426.4,423.6
		c0-5.5,0-11,0-16.5c0-1.6,0-1.6,1.6-1.6c14.4,0,28.7,0,43.1,0c1.6,0,2-0.4,2-2c0-1.9,0-3.8,0-5.7c0-1.5-0.2-1.7-1.7-1.8
		c-0.7,0-1.3,0-2,0c0-0.5,0-1,0-1.5c0-2,0-2-2.1-2c-13.1,0-26.2,0-39.2,0c-0.5,0-1.1,0-1.6-0.1c0-4.8,0-9.5-0.1-14.3
		c0-1.2,0.3-1.5,1.5-1.5c14.8,0,29.7,0,44.5,0c0.3,0,0.7,0,1,0c0.8,0,1.1-0.4,1.1-1.2c0-2.4,0-4.8,0-7.2c0-0.8-0.4-1.4-1.4-1.3
		c-0.7,0-1.5,0-2.2,0c0-0.5,0-0.9,0-1.4c0-1.8,0-1.8-1.8-1.8c-17.7,0-35.3,0-53,0c-1.7,0-1.8,0.1-1.8,1.7c0,21.8,0,43.6,0,65.4
		c0,1.6,0.1,1.7,1.7,1.7c0.5,0,1,0,1.5,0.1c0,0.5,0,1,0,1.5c0,2.4,0.2,2.6,2.6,2.6c17.3,0,34.6,0,51.9,0c0.5,0,1.1,0,1.6-0.1
		c0.7-0.2,1-0.5,1-1.2c0-2.4,0-4.7,0-7.1c0-0.9-0.4-1.3-1.3-1.3c-0.8,0-1.6,0-2.4,0c0-0.5,0-0.9,0-1.4c0-2.1,0-2.1-2.1-2.1
		c-10.6,0-21.2,0-31.8,0C433.4,423.6,429.9,423.6,426.4,423.6z M542.7,407c1,2.1,1.2,4.4,1.3,6.7c0.1,5.8-0.6,11.6-0.6,17.4
		c0,1.1,0.3,1.5,1.4,1.5c0.6,0,1.2,0,1.8,0.1c0.1,0.5-0.1,0.9-0.1,1.3c-0.4,1.9,0.3,2.7,2.3,2.7c1.6,0,3.1,0,4.7,0
		c2,0,2.4-0.4,2.4-2.4c-0.1-7.2,0.2-14.4-0.2-21.6c-0.2-4.4-1.3-8.4-4-11.9c-0.6-0.8-1.4-1.4-2.4-1.7c-0.1-0.2-0.2-0.3-0.3-0.5
		c0-0.3,0.2-0.5,0.4-0.8c1.3-1.5,2.3-3.3,2.8-5.3c0.3-1.3,0.5-2.6,0.7-3.9c0.4-3.3,0.2-6.6-0.7-9.7c-0.8-2.6-1.9-5-4.1-6.8
		c-0.5-0.4-0.6-1.3-1.5-1.2c-2-2.4-4.2-4.6-7.3-5.7c-3.1-1.1-6.4-1.7-9.7-1.7c-15.6,0-31.2,0-46.8,0c-1.8,0-1.8,0-1.8,1.9
		c0,21.7,0,43.3,0,65c0,1.9,0,1.9,2,2c0.4,0,0.8,0.1,1.2,0.1c0,0.9,0.1,1.7,0,2.6c0,0.9,0.3,1.3,1.2,1.2c1.9,0,3.9,0,5.8,0
		c1.8,0,1.9-0.1,1.9-1.9c0-9.2,0-18.4,0-27.6c0-1.1,0.2-1.5,1.4-1.5c13.9,0,27.8,0,41.7,0c0.3,0,0.7-0.1,1,0
		C538.9,406.3,540.9,406.2,542.7,407z M316.1,432.7c0.5,1.1,1,2.1,1.4,3.1c0.2,0.5,0.5,0.9,1.2,0.9c2.4,0,4.7,0.1,7.1,0
		c1.3,0,1.9-1.2,1.3-2.3c-1.3-2.1-2.1-4.4-3.2-6.5c-2.8-5.7-5.6-11.5-8.3-17.2c-1.4-2.9-2.8-5.8-4.2-8.7c-3.3-7-6.8-14-10.1-21.1
		c-0.8-1.6-1.7-3.2-2.4-4.8c-1.1-2.5-2.3-5-3.5-7.5c-0.6-1.3-1.4-1.8-2.7-1.6c-0.4-0.7-0.8-1.4-1.1-2.2c-0.3-0.8-0.8-1-1.7-1
		c-2.9,0.1-5.8,0.1-8.7,0c-0.9,0-1.3,0.3-1.7,1.1c-1.8,3.9-3.6,7.8-5.4,11.6c-3.4,7.2-6.8,14.5-10.3,21.7
		c-2.6,5.5-5.2,11.1-7.9,16.6c-3.1,6.5-6.2,13-9.3,19.5c-1.5,3.1-3,6.1-4.3,9.3c-0.5,1.3-1.2,1.6-2.4,1.6c-64.4,0-128.9,0-193.3,0
		c-0.4,0-0.7,0-1.1,0c-0.5,0-0.7,0.2-0.7,0.7c0,1,0,2,0,3c0,2.7,0,2.7,2.6,2.8c0.1,0,0.2,0,0.4,0c0,0.6,0,1.2,0,1.7
		c0,2.2,0,2.2,2.1,2.2c173.2,0,346.4,0,519.7,0c0.3,0,0.7,0,1,0c0.8,0.1,1.1-0.3,1.1-1.1c0-1,0-1.9,0-2.9c0-3,0-3-2.9-3
		c-0.2,0-0.5,0-0.7,0c0-0.6,0-1.2,0-1.7c0-2,0.3-1.7-1.7-1.7c-48.8,0-97.6,0-146.4,0c-1.9,0-3.3-0.3-4.8-1.7
		c-3.3-3.1-6.8-6-10.2-8.9c-3.2-2.8-6.4-5.5-9.6-8.3c-3.5-3.1-7.1-6.2-10.7-9.3c-0.9-0.8-1.9-1.5-2.9-2.4c-3.8-3.3-7.5-6.7-11.4-10
		c-2.2-1.9-4.4-3.9-6.6-5.8c2.9-1.9,5.7-3.8,8.5-5.9c2.3-1.7,4.7-3.3,7.1-4.9c3-2,6-4.2,9-6.3c3.1-2.1,6.2-4.3,9.3-6.4
		c2.7-1.9,5.3-3.8,8.1-5.6c0.7-0.5,0.9-1,0.7-1.8c-0.2-0.9-0.8-1-1.6-1c-1.5,0-3,0-4.5,0c0.5-0.4,1-0.8,1.6-1.2
		c0.6-0.4,1-0.7,0.8-1.5c-0.2-0.7-0.8-0.5-1.3-0.5c-3.1,0-6.1,0-9.2,0c-0.7,0-1.2,0.2-1.7,0.5c-1.8,1.3-3.7,2.4-5.5,3.8
		c-1.9,1.5-3.9,2.7-5.9,4.1c-4.7,3.3-9.4,6.6-14.2,9.8c-3.1,2.1-6.2,4.2-9.3,6.3c-0.2,0.2-0.4,0.4-0.6,0.6c-1.4,0.9-2.5,2.3-4.2,2.4
		c-1.6,0.1-3.1,0-4.7,0c0-5.7,0-11.3,0-17c0-1.7,0-3.5,0-5.2c0-1.9-0.2-2.1-2.1-2.1c-0.5,0-1.1,0-1.6,0c0-0.6,0-1.2,0-1.7
		c0-1-0.3-1.6-1.5-1.5c-1.7,0.1-3.4,0-5.1,0c-1.8,0-1.8,0-1.8,1.8c0,21.4,0,42.8,0,64.1c0,2.8,0,2.8,2.7,2.9c0.2,0,0.3,0,0.5,0.1
		c0,0.7,0,1.5,0,2.2c0,1.5,0.3,1.8,1.8,1.8c1.6,0,3.1,0,4.7,0c2.1,0,2.4-0.4,2.4-2.5c0-9.7,0-19.4,0-29.1c0-1.2,0.3-1.5,1.5-1.4
		c2.2,0.1,4.5,0,6.7,0c0.5,0,1,0,1.4,0.4c1.9,1.8,3.8,3.4,5.8,5.1c2.3,1.9,4.5,4,6.8,6c1,0.9,2.2,1.7,3.1,2.6c2,2.1,4.4,3.7,6.4,5.7
		c1,1,2.3,1.8,3.3,2.8c2,2.1,4.4,3.7,6.4,5.7c1,1,2.2,1.7,3.2,2.7c2.1,2.2,4.5,3.9,6.7,6c1.6,1.5,3.4,2.7,4.8,4.4c-0.5,0-1,0-1.5,0
		c-47.7,0-95.4,0-143,0c-0.5,0-0.9,0-1.4,0c0-0.6,0.2-1.1,0.4-1.5c2.1-4.4,4.3-8.9,6.2-13.4c1.2-2.9,2.7-5.6,3.9-8.5
		c0.5-1.1,1.1-1.3,2.1-1.3c13.3,0,26.6,0,39.9,0c1,2,2.1,4,3,6.1c0.7,1.5,1.6,2.9,2.1,4.4C314.3,432,314.8,432.8,316.1,432.7z"/>
	<path fill="rgb(245,245,245)" d="M346,391.3c1.6,0,3.1,0.1,4.7,0c1.7-0.1,2.9-1.5,4.2-2.4c0.2-0.1,0.4-0.4,0.6-0.6c3.1-2.1,6.2-4.2,9.3-6.3
		c4.7-3.3,9.5-6.6,14.2-9.8c2-1.4,4-2.6,5.9-4.1c1.7-1.4,3.6-2.5,5.5-3.8c0.5-0.4,1.1-0.5,1.7-0.5c3.1,0,6.1,0,9.2,0
		c0.5,0,1.1-0.2,1.3,0.5c0.2,0.7-0.2,1.1-0.8,1.5c-0.6,0.3-1.1,0.8-1.6,1.2c-0.6,0.1-0.8,0.7-1.3,1c-4.2,2.6-8.1,5.6-12.2,8.4
		c-4.3,2.9-8.5,5.9-12.8,8.9c-3.5,2.5-7.1,4.8-10.6,7.3c-1.1,0.8-2.1,1.6-3.2,2.3c-0.3,0.2-0.7,0.5-0.2,0.8c1.3,0.9,2.2,2.3,3.6,3.1
		c2.2,1.9,4.4,3.9,6.6,5.8c3.9,3.3,7.6,6.7,11.4,10c0.9,0.8,1.9,1.6,2.9,2.4c3.6,3.1,7.2,6.1,10.7,9.3c3.2,2.8,6.4,5.6,9.6,8.3
		c3.4,3,6.9,5.8,10.2,8.9c1.5,1.4,3,1.7,4.8,1.7c48.8,0,97.6,0,146.4,0c2,0,1.7-0.3,1.7,1.7c0,0.6,0,1.2,0,1.7c0,0.7-0.1,1.4,0,2.1
		c0,0.7-0.2,1-0.9,0.9c-0.3,0-0.7,0-1,0c-172.3,0-344.5,0-516.8,0c-0.5,0-1,0-1.5,0.1c-0.1,0-0.2,0-0.4,0c-2.6-0.1-2.6-0.1-2.6-2.8
		c0-1,0-2,0-3c0-0.5,0.2-0.8,0.7-0.7c0.4,0,0.7,0,1.1,0c64.4,0,128.9,0,193.3,0c1.3,0,1.9-0.3,2.4-1.6c1.3-3.2,2.9-6.2,4.3-9.3
		c3.1-6.5,6.2-13,9.3-19.5c2.6-5.5,5.2-11.1,7.9-16.6c3.4-7.2,6.8-14.5,10.3-21.7c1.8-3.9,3.7-7.7,5.4-11.6c0.4-0.8,0.8-1.1,1.7-1.1
		c2.9,0.1,5.8,0.1,8.7,0c0.9,0,1.4,0.2,1.7,1c0.3,0.8,0.8,1.5,1.1,2.2c0.1,0.3,0.2,0.7,0.4,1c2.7,5.7,5.5,11.5,8.2,17.2
		c2.7,5.6,5.4,11.3,8.2,16.9c3,6.3,6,12.6,9.1,18.8c1.6,3.2,3.1,6.5,4.7,9.7c0.7,1.5,0.5,1.9-1.2,1.9c-1.9,0-3.9-0.1-5.8,0.1
		c-1.3,0.1-1.9-0.6-2.3-1.8c-0.5-1.5-1.5-2.9-2.1-4.4c-0.9-2.1-2-4-3-6.1c-0.4-1-0.9-2-1.3-3.1c-0.3-0.7-0.8-0.9-1.5-0.9
		c-13.7,0-27.5,0-41.2,0c-0.8,0-1.2,0.3-1.5,1c-1,2.3-2.1,4.7-3.2,7c-2.3,4.9-4.5,9.7-6.8,14.6c-0.8,1.8-1.6,3.5-2.4,5.3
		c-0.3,0.7-0.2,1,0.7,1c1.5-0.1,3.1,0,4.6,0c0.5,0,0.9,0,1.4,0c47.7,0,95.4,0,143,0c0.5,0,1,0,1.5,0c0.3,0,0.7,0.2,0.9-0.2
		c0.2-0.3-0.3-0.5-0.4-0.7c-0.4-0.4-0.7-0.8-1.1-1.1c-3.4-2.8-6.6-5.7-9.9-8.6c-3.2-2.9-6.5-5.7-9.8-8.5c-3.3-2.8-6.5-5.7-9.8-8.5
		c-3.1-2.7-6.3-5.4-9.4-8.2c-2.5-2.2-5-4.4-7.6-6.5c-0.6-0.5-1.1-0.9-1.6-1.5c-1-1.1-2.2-1.8-3.8-1.6c-2,0.2-4,0-5.9,0
		c-1.6,0-1.6,0-1.6,1.7c0,9.9,0,19.8,0,29.6c0,1.1-0.3,1.6-1.5,1.5c-1.2-0.1-2.4,0-3.6,0.1c-0.2,0-0.3-0.1-0.5-0.1
		c-2.7-0.1-2.7-0.1-2.7-2.9c0-21.4,0-42.8,0-64.1c0-1.8,0-1.8,1.8-1.8c1.7,0,3.4,0.1,5.1,0c1.2-0.1,1.5,0.5,1.5,1.5
		c0,0.6,0,1.2,0,1.7c0,6.9,0,13.8,0,20.7c0,1.2-0.5,2.7,0.3,3.4C343.3,391.8,344.8,391.3,346,391.3z M288.2,377.5
		c-0.7-2-1.8-3.9-2.7-5.9c-1.4,2.8-2.8,5.6-4.1,8.4c-0.7,1.5-1.5,2.9-2.1,4.3c-1.6,3.3-3.1,6.6-4.7,9.8c-2,4.2-4.1,8.5-6.1,12.7
		c-0.3,0.7-0.2,0.9,0.5,0.9c1.6,0,3.1,0,4.7,0c9.6,0,19.1,0,28.8,0c-2-4.2-3.9-8.3-5.9-12.4c-1.8-3.7-3.4-7.5-5.3-11.2
		C290.4,381.9,289.5,379.6,288.2,377.5z"/>
	<path fill="rgb(245,245,245)" d="M80.6,375.2c1-3.2,2.7-5.9,5.4-8c2.1-1.6,4.6-2.4,7.2-2.9c1.9-0.4,3.8-0.5,5.8-0.5c11.8,0,23.6,0,35.5,0
		c4.2,0,8.2,0.8,11.9,3c1.9,1.1,3.5,2.8,4.9,4.5c0.1,0.4,0.2,0.8,0.5,1.1c2,3.3,2.4,7,2.6,10.8c0,0.9-0.4,1.3-1.3,1.2
		c-1.4,0-2.8,0-4.2,0c-2.7-0.1-2.6-0.1-3-2.7c-0.2-1.2-0.3-2.4-1-3.5c-0.7-1.5-1.6-2.8-3.2-3.6c-2.8-1.4-5.9-1.8-9-1.8
		c-11.4-0.1-22.8,0-34.2,0c-2,0-3.9,0.3-5.7,1c-1.4,0.5-2.5,1.3-3.3,2.7c-1.4,2.6-1.5,5.4-1.1,8.2c0.4,2.5,1.7,4.5,4.1,5.7
		c2.5,1.5,5.3,2,8.1,2.3c6.2,0.6,12.4,0.4,18.6,0.2c4.2-0.2,8.4-0.4,12.5,0.2c4.5,0.6,9.2,1.1,13.4,3c2.7,1.2,4.7,3.2,6.6,5.4
		c0,0.5,0.3,0.8,0.5,1.1c0.6,1.1,1.2,2.3,1.5,3.5c1.2,4.3,1.1,8.6,0.5,12.9c-0.5,3.2-1.7,6.1-3.7,8.7c-1.7,2.1-4.1,3.1-6.5,4
		c-2.3,0.8-4.7,1.1-7.2,1.1c-11.9,0-23.8,0-35.7,0.1c-1.8,0-3.5-0.2-5.3-0.4c-3.2-0.5-5.8-2.1-8.6-3.6c-4.8-4-6.8-9.3-6.9-15.4
		c0-1.2,0.4-1.6,1.6-1.6c1.7,0.1,3.5,0.1,5.2,0c1.2-0.1,1.5,0.5,1.6,1.5c0.1,0.7-0.1,1.4,0.2,2.1c0.4,2.8,1.4,5.2,4.3,6.4
		c2.6,1.3,5.4,2,8.3,2c11.2,0,22.4,0,33.6,0c2.7,0,5.2-0.7,7.5-2c1.5-0.9,2.6-2.1,3.1-3.8c0.9-3.3,1.3-6.5-0.2-9.8
		c-0.1-0.1-0.1-0.2-0.2-0.3c0,0,0,0,0,0c-0.8-2.1-2.5-3.3-4.5-4.2c-3.2-1.3-6.7-1.6-10.1-1.7c-5-0.1-10,0-15,0.1
		c-5.6,0.1-11.2,0.5-16.9-0.5c-4.4-0.8-8.7-1.6-12.7-3.8c0,0,0,0,0,0c0-0.4-0.2-0.6-0.5-0.7c-4.2-3.3-5.6-7.9-5.9-12.9
		c0-0.7,0-1.3-0.1-2c0-0.6,0-1.2,0-1.7c0.4-0.9,0.2-1.8,0.4-2.7C80.3,376.7,80.4,375.9,80.6,375.2z"/>
	<path fill="rgb(245,245,245)" d="M549,398.8c0.1,0.2,0.2,0.3,0.3,0.5c1.7,2.8,2.6,5.9,2.6,9.2c0.1,7.7,0.1,15.4,0.1,23.1
		c0,0.9-0.4,1.1-1.2,1.1c-1.4,0-2.7-0.1-4.1,0.1c-0.6,0-1.2-0.1-1.8-0.1c-1.1,0.1-1.4-0.4-1.4-1.5c0-5.8,0.7-11.6,0.6-17.4
		c-0.1-2.3-0.3-4.6-1.3-6.7c-0.6-2.4-2.4-3.6-4.7-4.3c-1.8-0.6-3.7-0.9-5.6-0.9c-13.8,0-27.6,0-41.4,0c-1.6,0-1.6,0-1.6,1.6
		c0,9.1,0,18.3,0,27.4c0,1.8,0,1.8-1.8,1.8c-1.2,0-2.3-0.1-3.5,0.1c-0.4,0-0.8-0.1-1.2-0.1c-2,0-2,0-2-2c0-21.7,0-43.3,0-65
		c0-1.8,0-1.9,1.8-1.9c15.6,0,31.2,0,46.8,0c3.3,0,6.6,0.6,9.7,1.7c3.1,1.1,5.3,3.2,7.3,5.7c1.4,2.7,2.4,5.4,2.5,8.4
		c0.3,5.6,0.1,11-4.3,15.4C546.6,395.9,547.8,397.3,549,398.8z M540,378.4c-0.7-1.9-1.9-3.2-3.8-4c-1.8-0.7-3.6-1.2-5.5-1.2
		c-13.4,0-26.8,0-40.2,0c-0.9,0-1.2,0.3-1.2,1.2c0,4.8,0,9.5,0,14.3c0,3.6,0,3.6,3.8,3.3c7,0,14,0.1,20.9,0c5.8,0,11.6,0.3,17.4-0.2
		c2.9-0.3,5.8-0.9,7.6-3.6C541.2,385.1,541.3,381.8,540,378.4z"/>
	<path fill="#E2E1E3" d="M47.6,451.7c0.5,0,1-0.1,1.5-0.1c172.3,0,344.5,0,516.8,0c0.3,0,0.7,0,1,0c0.7,0.1,1-0.2,0.9-0.9
		c0-0.7,0-1.4,0-2.1c0.2,0,0.5,0,0.7,0c2.9,0,2.9,0,2.9,3c0,1,0,1.9,0,2.9c0,0.8-0.3,1.1-1.1,1.1c-0.3,0-0.7,0-1,0
		c-173.2,0-346.4,0-519.7,0c-2.1,0-2.1,0-2.1-2.2C47.7,452.9,47.6,452.3,47.6,451.7z"/>
	<path fill="rgb(245,245,245)" d="M426.4,392.5c0.5,0,1.1,0.1,1.6,0.1c13.1,0,26.2,0,39.2,0c2,0,2,0,2.1,2c0,0.5,0,1,0,1.5c0,1.3,0,2.6,0,3.8
		c0,1.6-0.3,1.9-1.9,1.9c-14.4,0-28.9,0-43.3,0c-1.2,0-1.5,0.2-1.5,1.5c0.1,5.6,0,11.2,0,16.9c0,1.1-0.5,2.7,0.2,3.3
		c0.8,0.7,2.3,0.2,3.5,0.2c3.5,0,7,0,10.5,0c10.6,0,21.2,0,31.8,0c2.1,0,2.1,0,2.1,2.1c0,0.5,0,0.9,0,1.4c0,1.2,0,2.4-0.1,3.6
		c0,1.9,0,1.9-1.9,1.9c-16.6,0-33.3,0-49.9,0c-0.5,0-1.1,0.1-1.6,0.1c-0.5,0-1-0.1-1.5-0.1c-1.6,0-1.7-0.1-1.7-1.7
		c0-21.8,0-43.6,0-65.4c0-1.6,0.1-1.7,1.8-1.7c17.7,0,35.3,0,53,0c1.8,0,1.8,0,1.8,1.8c0,0.5,0,0.9,0,1.4c0,1.3,0,2.6-0.1,4
		c0,1.8,0,1.8-1.8,1.8c-14.9,0-29.7,0-44.6,0c-2,0-1.7-0.3-1.7,1.8c0,4.9,0,9.8,0,14.7C422.6,392.9,422.6,392.9,426.4,392.5z"/>
	<path fill="rgb(245,245,245)" d="M179.2,392.5c0.5,0,0.9,0.1,1.4,0.1c15.6,0,31.2,0,46.8,0c1.2,0,1.5-0.3,1.5-1.5c-0.1-8.5,0-17,0-25.6
		c0-1.7,0-1.7,1.7-1.7c1.7,0,3.3,0.1,5,0c1.2-0.1,1.6,0.4,1.5,1.5c0,0.6,0,1.2,0,1.7c0,0.5,0,1,0,1.5c0,20.6,0,41.3,0,61.9
		c0,0.4,0,0.7,0,1.1c0,0.8-0.4,1.1-1.2,1.1c-1.3,0-2.6-0.1-3.8,0.1c-0.3,0-0.6-0.1-0.9-0.1c-2.6,0-2.3,0.1-2.3-2.3
		c0-8.3,0-16.5,0-24.8c0-0.8,0-1.6,0.1-2.4c0.2-1.2-0.3-1.4-1.4-1.4c-16.8,0-33.6,0-50.4,0c-1.3,0-1.6,0.3-1.6,1.6
		c0.1,8.6,0,17.3,0,25.9c0,3.4,0,3.4-3.3,3.4c-0.6,0-1.2-0.1-1.7,0.1c-0.3,0-0.6-0.1-0.9-0.1c-2.7,0-2.3,0-2.3-2.3
		c0-21.5,0-43.1,0-64.6c0-1.9,0-1.9,1.8-1.9c1.7,0,3.5,0,5.2,0c0.9,0,1.3,0.3,1.2,1.2c0,0.7,0,1.3,0,2c0,0.5-0.1,1-0.1,1.5
		c0,6.9,0,13.9,0,20.8C175.5,392.9,175.5,392.9,179.2,392.5z"/>
	<path fill="#E2E2E4" d="M87.1,428.6c2.7,1.5,5.4,3.2,8.6,3.6c1.8,0.2,3.5,0.4,5.3,0.4c11.9,0,23.8,0,35.7-0.1
		c2.4,0,4.9-0.3,7.2-1.1c2.4-0.9,4.9-1.9,6.5-4c2-2.5,3.2-5.5,3.7-8.7c0.7-4.3,0.8-8.6-0.5-12.9c-0.4-1.2-0.9-2.4-1.5-3.5
		c-0.2-0.4-0.5-0.7-0.5-1.1c2.4,1.7,4.2,3.9,5.2,6.7c1.6,4.4,1.9,9,1.1,13.6c-0.4,2.8-1.1,5.4-2.6,7.8c-1.5,2.6-3.7,4.3-6.4,5.4
		c-3.1,1.3-6.3,1.6-9.6,1.8c-11.4,0.5-22.7,0.1-34.1,0.2c-2.8,0-5.6-0.1-8.3-1c-3.7-1.3-7.1-3-9.6-6.2
		C87.2,429.2,87.1,428.9,87.1,428.6z"/>
	<path fill="#E2E2E5" d="M170.5,432.7c0.6-0.2,1.1-0.1,1.7-0.1c3.3,0,3.3,0,3.3-3.4c0-8.6,0-17.3,0-25.9c0-1.3,0.3-1.6,1.6-1.6
		c16.8,0,33.6,0,50.4,0c1.1,0,1.6,0.2,1.4,1.4c-0.1,0.8,0,1.6-0.1,2.4c-16.1,0-32.2,0-48.2,0c-1.3,0-1.3,0.8-1.3,1.7
		c0,9.1,0,18.2,0,27.3c0,2.2-0.1,2.3-2.3,2.3c-1.5,0-3,0-4.5,0c-1.7,0-1.9-0.3-1.9-1.9C170.5,434.1,170.5,433.4,170.5,432.7z"/>
	<path fill="#E3E3E5" d="M484.2,432.7c1.1-0.2,2.3-0.1,3.5-0.1c1.7,0,1.8-0.1,1.8-1.8c0-9.1,0-18.3,0-27.4c0-1.6,0-1.6,1.6-1.6
		c13.8,0,27.6,0,41.4,0c1.9,0,3.8,0.3,5.6,0.9c2.2,0.7,4,1.9,4.7,4.3c-1.8-0.8-3.8-0.7-5.5-1.5c-0.3-0.1-0.7,0-1,0
		c-13.9,0-27.8,0-41.7,0c-1.2,0-1.4,0.4-1.4,1.5c0,9.2,0,18.4,0,27.6c0,1.8-0.1,1.9-1.9,1.9c-1.9,0-3.9,0-5.8,0
		c-0.9,0-1.3-0.3-1.2-1.2C484.2,434.4,484.2,433.6,484.2,432.7z"/>
	<path fill="#E3E3E5" d="M256.1,445.2c-1.5,0-3.1,0-4.6,0c-0.9,0-1-0.3-0.7-1c0.8-1.8,1.6-3.5,2.4-5.3c2.3-4.9,4.5-9.7,6.8-14.6
		c1.1-2.3,2.1-4.6,3.2-7c0.3-0.7,0.7-1,1.5-1c13.7,0,27.5,0,41.2,0c0.8,0,1.2,0.2,1.5,0.9c0.4,1,0.9,2,1.3,3.1
		c-13.3,0-26.6,0-39.9,0c-1.1,0-1.7,0.2-2.1,1.3c-1.2,2.9-2.7,5.7-3.9,8.5c-2,4.5-4.1,9-6.2,13.4
		C256.3,444.1,256.1,444.6,256.1,445.2z"/>
	<path fill="#E2E2E4" d="M426.4,392.5c-3.8,0.5-3.8,0.5-3.8-3.2c0-4.9,0-9.8,0-14.7c0-2.1-0.3-1.8,1.7-1.8c14.9,0,29.7,0,44.6,0
		c1.8,0,1.8,0,1.8-1.8c0-1.3,0-2.6,0.1-4c0.7,0,1.5,0.1,2.2,0c1-0.1,1.4,0.5,1.4,1.3c0,2.4,0,4.8,0,7.2c0,0.7-0.4,1.1-1.1,1.2
		c-0.3,0-0.7,0-1,0c-14.8,0-29.7,0-44.5,0c-1.2,0-1.5,0.3-1.5,1.5C426.4,382.9,426.4,387.7,426.4,392.5z"/>
	<path fill="#E3E3E5" d="M232,432.7c1.3-0.3,2.6-0.1,3.8-0.1c0.8,0,1.1-0.3,1.2-1.1c0-0.4,0-0.7,0-1.1c0-20.6,0-41.3,0-61.9
		c0-0.5,0-1,0-1.5c0.7,0,1.5,0,2.2,0c1-0.1,1.4,0.5,1.5,1.4c0,0.3,0,0.6,0,0.9c0,21.7,0,43.5,0,65.2c0,1.9-0.3,2.3-2.3,2.3
		c-1.6,0-3.2,0-4.8,0c-1,0-1.6-0.4-1.6-1.6C232.1,434.4,232,433.5,232,432.7z"/>
	<path fill="#E2E2E5" d="M363.5,398.8c-1.4-0.8-2.3-2.2-3.6-3.1c-0.5-0.4-0.2-0.6,0.2-0.8c1.1-0.7,2.1-1.5,3.2-2.3
		c3.5-2.5,7.1-4.8,10.6-7.3c4.2-3,8.5-5.9,12.8-8.9c4.1-2.8,8-5.8,12.2-8.4c0.5-0.3,0.7-1,1.3-1c1.5,0,3,0.1,4.5,0
		c0.8,0,1.4,0.1,1.6,1c0.2,0.8,0,1.3-0.7,1.8c-2.8,1.8-5.4,3.7-8.1,5.6c-3.1,2.2-6.2,4.3-9.3,6.4c-3,2.1-6,4.2-9,6.3
		c-2.4,1.6-4.8,3.1-7.1,4.9C369.2,395,366.3,396.9,363.5,398.8z"/>
	<path fill="#E3E3E5" d="M426.4,423.6c-1.2,0-2.7,0.5-3.5-0.2c-0.8-0.7-0.2-2.2-0.2-3.3c0-5.6,0-11.2,0-16.9c0-1.2,0.4-1.5,1.5-1.5
		c14.4,0,28.9,0,43.3,0c1.6,0,1.9-0.3,1.9-1.9c0-1.3,0-2.6,0-3.8c0.7,0,1.3,0,2,0c1.5,0,1.7,0.2,1.7,1.8c0,1.9,0,3.8,0,5.7
		c0,1.6-0.4,2-2,2c-14.4,0-28.7,0-43.1,0c-1.6,0-1.6,0-1.6,1.6C426.4,412.6,426.4,418.1,426.4,423.6z"/>
	<path fill="#E2E1E3" d="M417.4,432.7c0.5,0,1.1-0.1,1.6-0.1c16.6,0,33.3,0,49.9,0c1.9,0,1.9,0,1.9-1.9c0-1.2,0-2.4,0.1-3.6
		c0.8,0,1.6,0,2.4,0c0.9,0,1.3,0.4,1.3,1.3c0,2.4,0,4.7,0,7.1c0,0.7-0.3,1-1,1.2c-0.5,0.1-1.1,0.1-1.6,0.1c-17.3,0-34.6,0-51.9,0
		c-2.4,0-2.6-0.2-2.6-2.6C417.4,433.7,417.4,433.2,417.4,432.7z"/>
	<path fill="#E2E2E5" d="M92.3,390.3c-2.4-1.2-3.7-3.2-4.1-5.7c-0.4-2.8-0.4-5.6,1.1-8.2c0.8-1.4,1.9-2.2,3.3-2.7
		c1.8-0.7,3.7-1,5.7-1c11.4,0,22.8,0,34.2,0c3.1,0,6.2,0.4,9,1.8c1.6,0.8,2.5,2.1,3.2,3.6c-2.3-0.6-4.5-1.3-6.9-1.4
		c-0.5,0-1-0.1-1.5-0.1c-11.6,0-23.1,0-34.7,0c-1.9,0-3.8,0.3-5.7,1c-2.8,1.1-3.8,3-4.1,6.7C91.7,386.4,91.9,388.4,92.3,390.3z"/>
	<path fill="#E3E3E5" d="M337,432.7c1.2,0,2.4-0.1,3.6-0.1c1.2,0.1,1.5-0.4,1.5-1.5c0-9.9,0-19.8,0-29.6c0-1.7,0-1.7,1.6-1.7
		c2,0,4,0.1,5.9,0c1.6-0.1,2.8,0.5,3.8,1.6c0.5,0.6,1.1,1,1.6,1.5c2.5,2.2,5.1,4.3,7.6,6.5c3.1,2.8,6.2,5.5,9.4,8.2
		c3.3,2.8,6.5,5.7,9.8,8.5c3.3,2.8,6.5,5.7,9.8,8.5c3.3,2.9,6.5,5.8,9.9,8.6c0.4,0.3,0.7,0.8,1.1,1.1c0.2,0.2,0.6,0.3,0.4,0.7
		c-0.2,0.4-0.6,0.2-0.9,0.2c-1.4-1.7-3.2-2.9-4.8-4.4c-2.2-2.1-4.6-3.8-6.7-6c-1-1-2.2-1.7-3.2-2.7c-2.1-2-4.4-3.6-6.4-5.7
		c-1-1-2.3-1.8-3.3-2.8c-2-2-4.4-3.6-6.4-5.7c-0.9-1-2.1-1.7-3.1-2.6c-2.3-2-4.5-4.1-6.8-6c-2-1.7-3.9-3.3-5.8-5.1
		c-0.4-0.4-0.9-0.4-1.4-0.4c-2.2,0-4.5,0.1-6.7,0c-1.1,0-1.5,0.3-1.5,1.4c0,9.7,0,19.4,0,29.1c0,2.1-0.4,2.5-2.4,2.5
		c-1.6,0-3.1,0-4.7,0c-1.5,0-1.8-0.3-1.8-1.8C337,434.2,337,433.4,337,432.7z"/>
	<path fill="#E3E3E5" d="M86.1,397.5c3.9,2.3,8.3,3,12.7,3.8c5.6,1,11.3,0.7,16.9,0.5c5-0.1,10-0.2,15-0.1c3.4,0.1,6.8,0.4,10.1,1.7
		c2,0.8,3.6,2.1,4.5,4.2c-0.4,0.1-0.8,0-1.2-0.2c-2.5-1.1-5.2-1.1-7.8-1.6c-4.9-0.8-9.9-0.7-14.7-0.3c-4.9,0.4-9.7,0.5-14.5,0.2
		c-4.9-0.3-10-0.9-14.6-2.9c-2.3-1-4.1-2.6-5.9-4.4C86.2,398.2,86.1,397.9,86.1,397.5z"/>
	<path fill="#E2E2E4" d="M316.1,432.7c1.9-0.2,3.9-0.1,5.8-0.1c1.7,0,2-0.4,1.2-1.9c-1.6-3.2-3.1-6.5-4.7-9.7
		c-3-6.3-6-12.6-9.1-18.8c-2.7-5.6-5.4-11.3-8.2-16.9c-2.8-5.7-5.5-11.4-8.2-17.2c-0.2-0.3-0.2-0.7-0.4-1c1.3-0.2,2.1,0.3,2.7,1.6
		c1.2,2.5,2.4,5,3.5,7.5c0.7,1.6,1.6,3.2,2.4,4.8c3.4,7,6.8,14,10.1,21.1c1.4,2.9,2.8,5.8,4.2,8.7c2.7,5.8,5.5,11.5,8.3,17.2
		c1.1,2.2,2,4.4,3.2,6.5c0.7,1.1,0,2.2-1.3,2.3c-2.4,0.1-4.7,0-7.1,0c-0.6,0-1-0.4-1.2-0.9C317.1,434.8,316.6,433.7,316.1,432.7z"/>
	<path fill="#E2E1E3" d="M546.7,432.7c1.4-0.2,2.7-0.1,4.1-0.1c0.8,0,1.2-0.2,1.2-1.1c0-7.7,0-15.4-0.1-23.1
		c-0.1-3.2-0.9-6.4-2.6-9.2c1,0.2,1.8,0.9,2.4,1.7c2.7,3.5,3.8,7.5,4,11.9c0.4,7.2,0.1,14.4,0.2,21.6c0,2-0.4,2.4-2.4,2.4
		c-1.6,0-3.1,0-4.7,0c-1.9,0-2.6-0.9-2.3-2.7C546.6,433.6,546.8,433.1,546.7,432.7z"/>
	<path fill="#E2E2E5" d="M549,398.8c-1.2-1.5-2.4-2.9-4.2-3.7c4.4-4.4,4.6-9.8,4.3-15.4c-0.2-3-1.2-5.8-2.5-8.4
		c0.9-0.1,1,0.8,1.5,1.2c2.2,1.8,3.3,4.2,4.1,6.8c0.9,3.2,1.1,6.4,0.7,9.7c-0.2,1.3-0.4,2.6-0.7,3.9c-0.4,2-1.4,3.7-2.8,5.3
		C549.1,398.3,549,398.5,549,398.8z"/>
	<path fill="#E2E1E1" d="M179.2,392.5c-3.7,0.4-3.7,0.4-3.7-3.2c0-6.9,0-13.9,0-20.8c0-0.5,0-1,0.1-1.5c0.7,0,1.5,0.1,2.2,0
		c1.1-0.1,1.4,0.3,1.4,1.4c0,5.8,0,11.6,0,17.4C179.2,388,179.2,390.2,179.2,392.5z"/>
	<path fill="#E3E3E5" d="M346,391.3c-1.2,0-2.7,0.5-3.5-0.2c-0.8-0.7-0.3-2.3-0.3-3.4c0-6.9,0-13.8,0-20.7c0.5,0,1.1,0,1.6,0
		c1.9,0,2.1,0.2,2.1,2.1c0,1.7,0,3.5,0,5.2C346,380,346,385.7,346,391.3z"/>
	<path fill="#E3E3E5" d="M148.6,384.4c1.4,0,2.8-0.1,4.2,0c0.9,0,1.3-0.3,1.3-1.2c-0.2-3.8-0.6-7.4-2.6-10.8
		c-0.2-0.3-0.3-0.8-0.5-1.1c0.9-0.1,0.9,0.8,1.4,1.2c3.4,3,4.6,6.9,5.1,11.2c0.1,1,0.2,2,0.2,3.1c0.1,1.2-0.5,1.6-1.6,1.6
		c-1.8-0.1-3.5,0-5.3,0c-1.5,0-1.9-0.4-2-1.9C148.9,385.8,148.9,385.1,148.6,384.4z"/>
	<path fill="rgb(245,245,245)" d="M71,379c-3.7-1.2-3.9-5.2-3.1-7.9c0.6-2.1,2.2-3.1,4.5-3.1c2.3,0,3.4,0.9,4.1,3.3c0,0.7,0.1,1.4,0.1,2.1
		c-0.7,0-1.3,0.1-2,0.1c-1.1,0-2.2-0.1-3.3-0.1c-0.3,0-0.6,0-0.7,0.4c-0.1,1.1,0.1,2.1,0.7,2.9c0.6,0.8,1.5,1.1,2.5,0.9
		c0.6-0.1,1.1-0.3,1.6-0.7c0.6-0.4,0.6,0,0.5,0.4c-0.3,0.6-0.8,1.1-1.4,1.3C73.5,379.1,72.2,378.9,71,379z M72.1,372.5
		c1.6,0,1.6,0,1.6-1.1c0-1.5-0.6-2.5-1.4-2.5c-0.9,0-1.5,1.3-1.6,2.7C70.7,373,71.7,372.3,72.1,372.5z"/>
	<path fill="rgb(245,245,245)" d="M64.3,376.9c0.5,0,1,0,0.9,0.7c0,0.7-0.1,1.1-0.9,1c-1.2,0-2.5,0-3.7,0c-0.9,0-1.7-0.1-2.6,0
		c-0.7,0-0.9-0.2-0.8-0.9c0.4-3.7,0.1-7.4,0.2-11.1c0-0.3,0-0.7,0-1c0-0.6-0.5-1.5,0-1.7c0.9-0.4,1.9-0.2,2.9-0.1
		c0.4,0,0.3,0.4,0.3,0.7c0,0.8,0,1.7,0,2.5c-0.4,2.4-0.2,4.7-0.2,7.1c0,3.4,0.2,3.6,3.7,2.9C64.1,377,64.2,377,64.3,376.9z"/>
	<path fill="#E2E1E3" d="M64.3,376.9c-0.1,0-0.2,0-0.2,0.1c-3.4,0.7-3.7,0.6-3.7-2.9c0-2.4-0.2-4.8,0.2-7.1c1.2,0.1,2.8-0.5,3.5,0.3
		c0.7,0.8,0.2,2.3,0.2,3.5C64.3,372.8,64.3,374.9,64.3,376.9z"/>
	<path fill="#E3E3E5" d="M76.7,373.4c0-0.7-0.1-1.4-0.1-2.1c1.4,0,2.8,1.1,3.4,2.5c0.2,0.4,0,1.1,0.6,1.3c-0.2,0.8-0.3,1.5-0.5,2.3
		c-1.3,0-2.7,0-4-0.1c0.1-0.5,0-0.8-0.5-0.4c-0.5,0.3-1,0.5-1.6,0.7c-1,0.2-1.9-0.1-2.5-0.9c-0.6-0.8-0.8-1.9-0.7-2.9
		c0-0.4,0.4-0.4,0.7-0.4c1.1,0,2.2,0.1,3.3,0.1c0,0.2,0,0.5-0.1,0.7c-0.4,1.1-0.1,1.5,1.1,1.4c1.3-0.1,1.4-0.2,1.1-1.6
		C76.7,373.9,76.7,373.7,76.7,373.4z"/>
	<path fill="#E3E3E5" d="M60.5,378.7c1.2,0,2.5,0,3.7,0c0,0,0,0.1,0,0.1c0,2,0.4,2.3,2.4,1.5c1.4-0.6,2.3-0.1,2.3,1.2
		c0,0.8-0.3,1.1-1.1,1.1c-2.1,0-4.3,0-6.4,0c-1.1,0-1.4-0.5-1.1-1.4C60.6,380.4,60.5,379.6,60.5,378.7z"/>
	<path fill="#E3E3E5" d="M71,379c1.2-0.1,2.5,0.2,3.7-0.2c-0.1,1.1,0.6,1.9,1.4,2.3c0.9,0.4,2,0.3,2.7-0.5c0.3-0.3,0.5-0.4,0.9-0.4
		c0,0.6,0,1.2,0,1.7C76.1,384.3,72.2,383,71,379z"/>
	<path fill="#E2E2E5" d="M93.1,421.6c-2.9-1.2-3.9-3.5-4.3-6.4c0.6,0,1.2,0,1.8-0.1c1.2-0.2,1.7,0.5,1.6,1.5
		C92.2,418.3,92.8,419.9,93.1,421.6z"/>
	<path fill="#E3E3E5" d="M85.6,396.8c0.3,0.1,0.5,0.3,0.5,0.7C85.6,397.5,85.6,397.2,85.6,396.8z"/>
	<path fill="#E3E3E5" d="M145.2,407.7c0.1,0.1,0.1,0.2,0.2,0.3C145.3,407.9,145.3,407.8,145.2,407.7z"/>
	<path fill="#FEFEFD" d="M288.2,377.5c1.3,2.1,2.2,4.4,3.3,6.6c1.8,3.7,3.5,7.4,5.3,11.2c1.9,4.1,3.8,8.1,5.9,12.4
		c-9.7,0-19.3,0-28.8,0c0-0.2,0.1-0.3,0.1-0.5c2.4-5.1,4.9-10.3,7.3-15.4C283.5,387,285.9,382.3,288.2,377.5z"/>
	<path fill="#E2E2E5" d="M288.2,377.5c-2.3,4.8-4.7,9.5-7,14.3c-2.5,5.1-4.9,10.3-7.3,15.4c-0.1,0.1-0.1,0.3-0.1,0.5
		c-1.6,0-3.1,0-4.7,0c-0.7,0-0.9-0.2-0.5-0.9c2.1-4.2,4.1-8.5,6.1-12.7c1.6-3.3,3.1-6.5,4.7-9.8c0.7-1.5,1.5-2.8,2.1-4.3
		c1.3-2.8,2.7-5.6,4.1-8.4C286.4,373.6,287.5,375.5,288.2,377.5z"/>
	<path fill="#FEFEFD" d="M79.7,380.2c-0.3,0-0.6,0.1-0.9,0.4c-0.8,0.8-1.9,0.9-2.7,0.5c-0.8-0.4-1.5-1.2-1.4-2.3
		c0.6-0.2,1.1-0.7,1.4-1.3c1.3,0,2.7,0,4,0.1C79.8,378.3,80,379.3,79.7,380.2z"/>
	<path fill="#FEFEFE" d="M540,378.4c1.3,3.4,1.2,6.7-0.9,9.8c-1.8,2.7-4.7,3.4-7.6,3.6c-5.8,0.5-11.6,0.2-17.4,0.2
		c-7,0-13.9,0-20.9,0c0-4.5,0-8.9-0.1-13.4c0-1.2,0.4-1.4,1.5-1.4c12.1,0,24.2,0.1,36.2,0C533.9,377.2,537,377.3,540,378.4z"/>
	<path fill="#E3E3E5" d="M540,378.4c-3-1.1-6.1-1.3-9.2-1.3c-12.1,0-24.2,0-36.2,0c-1.1,0-1.5,0.3-1.5,1.4c0.1,4.5,0,8.9,0.1,13.4
		c-3.8,0.3-3.8,0.3-3.8-3.3c0-4.8,0-9.5,0-14.3c0-0.9,0.2-1.2,1.2-1.2c13.4,0,26.8,0,40.2,0c1.9,0,3.8,0.4,5.5,1.2
		C538.1,375.2,539.3,376.6,540,378.4z"/>
	<path fill="#FEFEFD" d="M72.1,372.5c-0.4-0.2-1.4,0.5-1.4-0.8c0-1.5,0.7-2.7,1.6-2.7c0.9,0,1.4,0.9,1.4,2.5
		C73.7,372.5,73.7,372.5,72.1,372.5z"/>
	<path fill="#FEFEFD" d="M76.7,373.4c0,0.2,0.1,0.5,0.1,0.7c0.3,1.4,0.2,1.5-1.1,1.6c-1.2,0.1-1.5-0.4-1.1-1.4
		c0.1-0.2,0.1-0.5,0.1-0.7C75.4,373.5,76,373.5,76.7,373.4z"/>
</g>
</svg>
